# This file uses centimeters as units for non-parametric coordinates.

mtllib LevelInk_4.mtl
g default
v 252.991266 -12.272462 200.000000
v 352.991266 -12.272462 200.000000
v 252.991266 -3.772309 200.000000
v 352.991266 -3.772309 200.000000
v 252.991266 -3.772309 -200.000000
v 352.991266 -3.772309 -200.000000
v 252.991266 -12.272462 -200.000000
v 352.991266 -12.272462 -200.000000
vt 0.464607 0.730482
vt 0.934016 0.725181
vt 0.934129 0.735156
vt 0.464719 0.740457
vt 0.464607 0.730482
vt 0.934016 0.725181
vt 0.934129 0.735156
vt 0.464719 0.740457
vt 0.491971 0.599802
vt 0.961384 0.594501
vt 0.962709 0.711854
vt 0.493297 0.717155
vt 0.328656 0.955244
vt 0.328656 0.837886
vt 0.338631 0.837886
vt 0.338631 0.955244
vt 0.328656 0.955244
vt 0.328656 0.837886
vt 0.338631 0.837886
vt 0.338631 0.955244
vn 0.000000 0.000000 1.000000
vn 0.000000 0.000000 1.000000
vn 0.000000 0.000000 1.000000
vn 0.000000 0.000000 1.000000
vn 0.000000 0.000000 -1.000000
vn 0.000000 0.000000 -1.000000
vn 0.000000 0.000000 -1.000000
vn 0.000000 0.000000 -1.000000
vn 1.000000 0.000000 0.000000
vn 1.000000 0.000000 0.000000
vn 1.000000 0.000000 0.000000
vn 1.000000 0.000000 0.000000
vn -1.000000 0.000000 0.000000
vn -1.000000 0.000000 0.000000
vn -1.000000 0.000000 0.000000
vn -1.000000 0.000000 0.000000
vn 0.000000 1.000000 0.000000
vn 0.000000 1.000000 0.000000
vn 0.000000 1.000000 0.000000
vn 0.000000 1.000000 0.000000
s off
g Levelink_Four
usemtl blinn4SG
f 1/13/1 2/14/2 4/15/3 3/16/4
f 5/17/5 6/18/6 8/19/7 7/20/8
f 2/1/9 8/2/10 6/3/11 4/4/12
f 7/5/13 1/6/14 3/7/15 5/8/16
f 5/9/17 3/10/18 4/11/19 6/12/20
