# This file uses centimeters as units for non-parametric coordinates.

mtllib SuzuriContainer1.mtl
g default
v 231.997554 -25.173101 218.367826
v 374.067743 -25.173101 218.367826
v 231.997554 24.899742 218.367826
v 374.067743 24.899742 218.367826
v 231.997554 24.899742 -218.367826
v 374.067743 24.899742 -218.367826
v 231.997554 -25.173101 -218.367826
v 374.067743 -25.173101 -218.367826
v 252.739786 24.899742 200.047117
v 353.325490 24.899742 200.047117
v 353.325490 24.899742 -200.047117
v 252.739786 24.899742 -200.047117
v 252.739786 -20.751989 200.047117
v 353.325490 -20.751989 200.047117
v 353.325490 -20.751989 -200.047117
v 252.739786 -20.751989 -200.047117
v 374.067743 -25.173101 109.183913
v 252.739786 -20.751989 100.023550
vt 0.226024 0.094269
vt 0.059287 0.094247
vt 0.226030 0.035503
vt 0.548101 0.032229
vt 0.284790 0.094276
vt 0.059295 0.035487
vt 0.000526 0.094250
vt 0.714987 0.031684
vt 0.225962 0.665593
vt 0.284735 0.606832
vt 0.550083 0.544707
vt 0.059228 0.665574
vt 0.716814 0.544146
vt 0.000470 0.606804
vt 0.225969 0.606827
vt 0.059231 0.606807
vt 0.572530 0.053638
vt 0.474225 0.596605
vt 0.527819 0.543016
vt 0.690716 0.053272
vt 0.302556 0.543034
vt 0.356194 0.596605
vt 0.692399 0.522733
vt 0.356217 0.019938
vt 0.302624 0.073562
vt 0.574344 0.523118
vt 0.527834 0.073539
vt 0.474193 0.019975
vt 0.474238 0.543019
vt 0.356156 0.543036
vt 0.356198 0.073555
vt 0.474262 0.073537
vt 0.059274 0.222387
vt 0.474239 0.425652
vn 0.000000 0.000000 1.000000
vn 0.000000 0.000000 1.000000
vn 0.000000 0.000000 1.000000
vn 0.000000 0.000000 1.000000
vn 0.000000 0.000000 -1.000000
vn 0.000000 0.000000 -1.000000
vn 0.000000 0.000000 -1.000000
vn 0.000000 0.000000 -1.000000
vn 1.000000 0.000000 0.000000
vn 1.000000 0.000000 0.000000
vn 1.000000 0.000000 0.000000
vn 1.000000 0.000000 0.000000
vn 1.000000 0.000000 0.000000
vn -1.000000 0.000000 0.000000
vn -1.000000 0.000000 0.000000
vn -1.000000 0.000000 0.000000
vn -1.000000 0.000000 0.000000
vn 0.000000 1.000000 0.000000
vn 0.000000 1.000000 0.000000
vn 0.000000 1.000000 0.000000
vn 0.000000 1.000000 0.000000
vn 0.000000 1.000000 0.000000
vn 0.000000 1.000000 0.000000
vn 0.000000 1.000000 0.000000
vn 0.000000 1.000000 0.000000
vn 0.000000 1.000000 0.000000
vn 0.000000 1.000000 0.000000
vn 0.000000 1.000000 0.000000
vn 0.000000 1.000000 0.000000
vn 0.000000 1.000000 0.000000
vn 0.000000 1.000000 0.000000
vn 0.000000 1.000000 0.000000
vn 0.000000 1.000000 0.000000
vn 0.000000 0.000000 -1.000000
vn 0.000000 0.000000 -1.000000
vn 0.000000 0.000000 -1.000000
vn 0.000000 0.000000 -1.000000
vn -1.000000 0.000000 0.000000
vn -1.000000 0.000000 0.000000
vn -1.000000 0.000000 0.000000
vn -1.000000 0.000000 0.000000
vn 0.000000 0.000000 1.000000
vn 0.000000 0.000000 1.000000
vn 0.000000 0.000000 1.000000
vn 0.000000 0.000000 1.000000
vn 1.000000 -0.000000 0.000000
vn 1.000000 -0.000000 0.000000
vn 1.000000 -0.000000 0.000000
vn 1.000000 -0.000000 0.000000
vn 1.000000 -0.000000 0.000000
vn 0.000000 -1.000000 0.000000
vn 0.000000 -1.000000 0.000000
vn 0.000000 -1.000000 0.000000
vn 0.000000 -1.000000 0.000000
vn 0.000000 -1.000000 0.000000
vn 0.000000 1.000000 0.000000
vn 0.000000 1.000000 0.000000
vn 0.000000 1.000000 0.000000
vn 0.000000 1.000000 0.000000
vn 0.000000 1.000000 0.000000
s off
g Suzuri_Container2
usemtl initialShadingGroup
f 3/3/1 1/1/2 2/2/3 4/6/4
f 7/15/5 5/9/6 6/12/7 8/16/8
f 4/7/9 2/2/10 17/33/11 8/16/12 6/14/13
f 5/10/14 7/15/15 1/1/16 3/5/17
f 9/17/18 3/4/19 4/8/20 10/20/21
f 10/20/22 4/8/23 6/13/24 11/23/25
f 11/23/26 6/13/27 5/11/28 12/26/29
f 12/26/30 5/11/31 3/4/32 9/17/33
f 9/18/34 10/22/35 14/30/36 13/29/37
f 14/30/38 10/21/39 11/25/40 15/31/41
f 15/31/42 11/24/43 12/28/44 16/32/45
f 16/32/46 12/27/47 9/19/48 13/29/49 18/34/50
f 17/33/51 2/2/52 1/1/53 7/15/54 8/16/55
f 18/34/56 13/29/57 14/30/58 15/31/59 16/32/60
