# This file uses centimeters as units for non-parametric coordinates.

mtllib Lain.mtl
g default
v 1943.971558 -6.527895 315.564026
v 1943.971558 -6.527876 -413.186249
v -471.774597 -6.527895 -413.186249
v -470.615784 -6.527895 315.564026
v 1943.971558 -94.158836 -413.186249
v -471.774597 -94.158836 -413.186249
v 1943.971558 -94.158836 315.564026
v -470.615784 -94.158836 315.564026
v -471.508850 -6.527895 -238.148087
v -471.508850 -94.158836 -238.148087
v 1943.971558 -6.527911 261.855743
v -470.752014 -6.527895 261.855743
v -470.752014 -94.158836 261.855743
v -249.450699 -94.158836 315.564026
v -249.450699 -6.527895 315.564026
v -249.579849 -6.527895 261.855743
v -250.297501 -6.527895 -238.148087
v -250.549484 -6.527895 -413.186249
v -250.549484 -94.158836 -413.186249
v 250.412735 -94.158836 315.564026
v 250.412735 -6.527895 315.564026
v 250.315720 -6.527896 261.855774
v 249.587250 -6.527876 -413.186249
v 249.587250 -94.158836 -413.186249
v -250.016403 -6.527895 -38.146553
v -471.212463 -6.527895 -38.146553
v -471.212463 -94.158836 -38.146553
v -250.161057 -6.527895 -138.147324
v -471.364929 -6.527895 -138.147324
v -471.364929 -94.158836 -138.147324
v -249.891312 -6.527895 61.854233
v -471.080505 -6.527895 61.854233
v -471.080505 -94.158836 61.854233
v -249.732239 -6.527895 161.854996
v -470.912781 -6.527895 161.854996
v -470.912781 -94.158836 161.854996
v 249.776550 -6.527890 -238.148087
v 1943.971558 -6.527885 -238.148087
v 1943.971558 -6.527941 -38.146553
v 249.879074 -6.527918 -138.147324
v 1943.971558 -6.527918 -138.147324
v 249.987747 -6.527941 -38.146553
v 1943.971558 -6.527925 161.854996
v 250.201218 -6.527910 161.854996
v 250.081726 -6.527933 61.854233
v 1943.971558 -6.527933 61.854233
vt 0.428664 0.024136
vt 0.392533 0.024136
vt 0.392533 0.001992
vt 0.428664 0.001992
vt 0.428664 0.065367
vt 0.392533 0.065367
vt 0.428664 0.106597
vt 0.392533 0.106597
vt 0.428664 0.147828
vt 0.392533 0.147828
vt 0.428664 0.189058
vt 0.392533 0.189058
vt 0.428664 0.230288
vt 0.392533 0.230288
vt 0.428664 0.302457
vt 0.392533 0.302457
vt 0.000856 0.906343
vt 0.023000 0.906397
vt 0.023000 0.997586
vt 0.000856 0.997530
vt 0.000856 0.700249
vt 0.023000 0.700289
vt 0.064230 0.906460
vt 0.064230 0.997653
vt 0.023000 0.001992
vt 0.000856 0.001992
vt 0.105461 0.906525
vt 0.105461 0.997722
vt 0.064230 0.001992
vt 0.064230 0.700336
vt 0.146691 0.906577
vt 0.146691 0.997776
vt 0.105461 0.001992
vt 0.105461 0.700385
vt 0.187922 0.906636
vt 0.187922 0.997839
vt 0.146691 0.001992
vt 0.146691 0.700424
vt 0.229152 0.906693
vt 0.229152 0.997898
vt 0.187922 0.001992
vt 0.187922 0.700469
vt 0.301320 0.906797
vt 0.301320 0.998008
vt 0.229152 0.001992
vt 0.229152 0.700511
vt 0.301320 0.700589
vt 0.301320 0.001992
vt 0.307985 0.906797
vt 0.344116 0.906797
vt 0.344116 0.998008
vt 0.307985 0.998008
vt 0.307985 0.700589
vt 0.344116 0.700589
vt 0.307985 0.001992
vt 0.344116 0.001992
vt 0.386390 0.997530
vt 0.350259 0.997530
vt 0.350259 0.906344
vt 0.386390 0.906344
vt 0.350259 0.700249
vt 0.386390 0.700249
vt 0.350259 0.001992
vt 0.386390 0.001992
vn 0.000000 1.000000 -0.000000
vn 0.000000 1.000000 -0.000000
vn 0.000000 1.000000 -0.000000
vn 0.000000 1.000000 -0.000000
vn 0.000000 0.000000 -1.000000
vn 0.000000 0.000000 -1.000000
vn 0.000000 0.000000 -1.000000
vn 0.000000 0.000000 -1.000000
vn -0.999998 0.000000 0.001932
vn -0.999998 0.000000 0.001932
vn -0.999997 0.000000 0.002536
vn -0.999997 0.000000 0.002536
vn 0.000000 0.000000 1.000000
vn 0.000000 0.000000 1.000000
vn 0.000000 0.000000 1.000000
vn 0.000000 0.000000 1.000000
vn -0.000000 1.000000 0.000000
vn -0.000000 1.000000 0.000000
vn 0.000000 1.000000 0.000000
vn 0.000000 1.000000 -0.000000
vn -0.999999 0.000000 0.001518
vn -0.999999 0.000000 0.001518
vn -0.999999 0.000000 0.001489
vn -0.999999 0.000000 0.001489
vn 0.000000 1.000000 0.000000
vn 0.000000 1.000000 0.000000
vn -0.999999 0.000000 0.001642
vn -0.999999 0.000000 0.001642
vn 0.000000 0.000000 1.000000
vn 0.000000 0.000000 1.000000
vn 0.000000 1.000000 -0.000000
vn 0.000000 1.000000 -0.000000
vn -0.000000 1.000000 0.000000
vn -0.000000 1.000000 0.000000
vn 0.000000 0.000000 -1.000000
vn 0.000000 0.000000 -1.000000
vn 0.000000 0.000000 1.000000
vn 0.000000 0.000000 1.000000
vn 0.000000 1.000000 -0.000000
vn 0.000000 1.000000 -0.000000
vn 0.000000 1.000000 -0.000000
vn 0.000000 1.000000 -0.000000
vn -0.000000 1.000000 0.000000
vn -0.000000 1.000000 0.000000
vn -0.000000 1.000000 0.000000
vn -0.000000 1.000000 0.000000
vn 0.000000 0.000000 -1.000000
vn 0.000000 0.000000 -1.000000
vn 0.000000 1.000000 -0.000000
vn 0.000000 1.000000 -0.000000
vn 0.000000 1.000000 -0.000000
vn 0.000000 1.000000 -0.000000
vn -0.999999 0.000000 0.001482
vn -0.999999 0.000000 0.001482
vn -0.999999 0.000000 0.001422
vn -0.999999 0.000000 0.001422
vn 0.000000 1.000000 -0.000000
vn 0.000000 1.000000 -0.000000
vn -0.999999 0.000000 0.001498
vn -0.999999 0.000000 0.001498
vn 0.000000 1.000000 0.000000
vn 0.000000 1.000000 0.000000
vn 0.000000 1.000000 0.000000
vn 0.000000 1.000000 0.000000
vn 0.000000 1.000000 -0.000000
vn 0.000000 1.000000 -0.000000
vn 0.000000 1.000000 -0.000000
vn 0.000000 1.000000 -0.000000
vn -0.000000 1.000000 0.000000
vn -0.000000 1.000000 0.000000
vn -0.000000 1.000000 0.000000
vn -0.000000 1.000000 0.000000
vn 0.000000 1.000000 -0.000000
vn 0.000000 1.000000 -0.000000
vn 0.000000 1.000000 -0.000000
vn 0.000000 1.000000 -0.000000
vn 0.000000 1.000000 -0.000000
vn 0.000000 1.000000 -0.000000
vn 0.000000 1.000000 -0.000000
vn 0.000000 1.000000 -0.000000
s 1
g polySurface1
usemtl initialShadingGroup
f 15/17/1 16/18/2 12/19/3 4/20/4
s 2
f 18/49/5 19/50/6 6/51/7 3/52/8
s 3
f 12/1/9 13/2/10 8/3/11 4/4/12
s 4
f 4/57/13 8/58/14 14/59/15 15/60/16
s 1
f 17/39/17 18/43/18 3/44/19 9/40/20
s 3
f 3/15/21 6/16/22 10/14/23 9/13/24
s 1
f 16/18/2 34/23/25 35/24/26 12/19/3
s 3
f 35/5/27 36/6/28 13/2/10 12/1/9
s 4
f 15/60/16 14/59/15 20/61/29 21/62/30
s 1
f 21/21/31 22/22/32 16/18/2 15/17/1
f 37/46/33 23/47/34 18/43/18 17/39/17
s 2
f 23/53/35 24/54/36 19/50/6 18/49/5
s 4
f 21/62/30 20/61/29 7/63/37 1/64/38
s off
f 11/25/39 22/22/40 21/21/41 1/26/42
f 2/48/43 23/47/44 37/46/45 38/45/46
s 2
f 2/55/47 5/56/48 24/54/36 23/53/35
s 1
f 26/32/49 25/31/50 28/35/51 29/36/52
s 3
f 29/11/53 30/12/54 27/10/55 26/9/56
s 1
f 29/36/52 28/35/51 17/39/17 9/40/20
s 3
f 9/13/24 10/14/23 30/12/54 29/11/53
s 1
f 32/28/57 31/27/58 25/31/50 26/32/49
s 3
f 26/9/56 27/10/55 33/8/59 32/7/60
s 1
f 35/24/26 34/23/25 31/27/58 32/28/57
s 3
f 32/7/60 33/8/59 36/6/28 35/5/27
s off
f 41/41/61 40/42/62 42/38/63 39/37/64
f 43/29/65 44/30/66 22/22/67 11/25/68
f 38/45/69 37/46/70 40/42/71 41/41/72
f 39/37/73 42/38/74 45/34/75 46/33/76
f 46/33/77 45/34/78 44/30/79 43/29/80
