# This file uses centimeters as units for non-parametric coordinates.

mtllib Walls.mtl
g default
v -475.031124 -26.071126 -419.281066
v 1856.281198 -26.071126 -419.281066
v -475.031124 696.003411 -419.281066
v 1856.281198 696.003411 -419.281066
v -475.031124 -26.071126 324.809123
v -475.031124 696.003411 324.809123
vt 0.004445 0.005189
vt 0.377461 0.005189
vt 0.377461 0.389577
vt 0.004445 0.389577
vt 0.014287 0.763933
vt 0.757534 0.007334
vt 0.991874 0.237539
vt 0.248627 0.994138
vn 0.000000 0.000000 1.000000
vn 0.000000 0.000000 1.000000
vn 0.000000 0.000000 1.000000
vn 0.000000 0.000000 1.000000
vn 1.000000 0.000000 0.000000
vn 1.000000 0.000000 0.000000
vn 1.000000 0.000000 0.000000
vn 1.000000 0.000000 0.000000
s off
g pPlane1
usemtl blinn1SG
f 1/5/1 2/6/2 4/7/3 3/8/4
f 1/1/5 3/2/6 6/3/7 5/4/8
