# This file uses centimeters as units for non-parametric coordinates.

mtllib LevelInk_4.mtl
g default
v -50.000000 -24.115599 200.000000
v 50.000000 -24.115599 200.000000
v -50.000000 -8.130380 200.000000
v 50.000000 -8.130380 200.000000
v -50.000000 -8.130380 -200.000000
v 50.000000 -8.130380 -200.000000
v -50.000000 -24.115599 -200.000000
v 50.000000 -24.115599 -200.000000
vt 0.940086 0.993022
vt 0.940086 0.519511
vt 0.959009 0.519511
vt 0.959009 0.993022
vt 0.940086 0.993022
vt 0.940086 0.519511
vt 0.959009 0.519511
vt 0.959009 0.993022
vt 0.406936 0.997706
vt 0.406936 0.524192
vt 0.525315 0.524192
vt 0.525315 0.997706
vt 0.040713 0.977384
vt 0.040713 0.859007
vt 0.059636 0.859007
vt 0.059636 0.977384
vt 0.040713 0.977384
vt 0.040713 0.859007
vt 0.059636 0.859007
vt 0.059636 0.977384
vn 0.000000 0.000000 1.000000
vn 0.000000 0.000000 1.000000
vn 0.000000 0.000000 1.000000
vn 0.000000 0.000000 1.000000
vn 0.000000 0.000000 -1.000000
vn 0.000000 0.000000 -1.000000
vn 0.000000 0.000000 -1.000000
vn 0.000000 0.000000 -1.000000
vn 1.000000 0.000000 0.000000
vn 1.000000 0.000000 0.000000
vn 1.000000 0.000000 0.000000
vn 1.000000 0.000000 0.000000
vn -1.000000 0.000000 0.000000
vn -1.000000 0.000000 0.000000
vn -1.000000 0.000000 0.000000
vn -1.000000 0.000000 0.000000
vn 0.000000 1.000000 0.000000
vn 0.000000 1.000000 0.000000
vn 0.000000 1.000000 0.000000
vn 0.000000 1.000000 0.000000
s off
g Levelink_Four
usemtl initialShadingGroup
f 1/13/1 2/14/2 4/15/3 3/16/4
f 5/17/5 6/18/6 8/19/7 7/20/8
f 2/1/9 8/2/10 6/3/11 4/4/12
f 7/5/13 1/6/14 3/7/15 5/8/16
f 5/9/17 3/10/18 4/11/19 6/12/20
